<svg width="40" height="40" viewBox="0 0 40 40" fill="none" xmlns="http://www.w3.org/2000/svg">
<mask id="mask0_747_2202" style="mask-type:alpha" maskUnits="userSpaceOnUse" x="0" y="0" width="40" height="40">
<rect width="40" height="40" fill="#D9D9D9"/>
</mask>
<g mask="url(#mask0_747_2202)">
<path d="M26.5417 26.1248C26.3472 25.9304 26.25 25.7287 26.25 25.5198C26.25 25.3121 26.3472 25.1248 26.5417 24.9582L29.7917 21.6665H16.2083C15.9861 21.6665 15.7917 21.5904 15.625 21.4382C15.4583 21.2848 15.375 21.0832 15.375 20.8332C15.375 20.5832 15.4583 20.3815 15.625 20.2282C15.7917 20.0759 15.9861 19.9998 16.2083 19.9998H29.7917L26.5 16.7082C26.3333 16.5415 26.25 16.3471 26.25 16.1248C26.25 15.9026 26.3472 15.7082 26.5417 15.5415C26.7083 15.3471 26.9028 15.2498 27.125 15.2498C27.3472 15.2498 27.5417 15.3471 27.7083 15.5415L32.0833 19.8748C32.2222 20.0415 32.3194 20.2009 32.375 20.3532C32.4306 20.5065 32.4583 20.6665 32.4583 20.8332C32.4583 20.9998 32.4306 21.1593 32.375 21.3115C32.3194 21.4648 32.2222 21.6248 32.0833 21.7915L27.6667 26.1665C27.5 26.3332 27.3122 26.4165 27.1033 26.4165C26.8956 26.4165 26.7083 26.3193 26.5417 26.1248ZM9.66667 34.9998C8.91667 34.9998 8.28445 34.7432 7.77 34.2298C7.25667 33.7154 7 33.0693 7 32.2915V9.37484C7 8.59706 7.25667 7.9515 7.77 7.43817C8.28445 6.92373 8.91667 6.6665 9.66667 6.6665H19.5417C19.7917 6.6665 19.9933 6.74262 20.1467 6.89484C20.2989 7.04817 20.375 7.24984 20.375 7.49984C20.375 7.74984 20.2989 7.95095 20.1467 8.10317C19.9933 8.2565 19.7917 8.33317 19.5417 8.33317H9.66667C9.41667 8.33317 9.18778 8.43762 8.98 8.6465C8.77111 8.85428 8.66667 9.09706 8.66667 9.37484V32.2915C8.66667 32.5693 8.77111 32.8121 8.98 33.0198C9.18778 33.2287 9.41667 33.3332 9.66667 33.3332H19.5417C19.7917 33.3332 19.9933 33.4093 20.1467 33.5615C20.2989 33.7148 20.375 33.9165 20.375 34.1665C20.375 34.4165 20.2989 34.6182 20.1467 34.7715C19.9933 34.9237 19.7917 34.9998 19.5417 34.9998H9.66667Z" fill="white"/>
</g>
</svg>
